HIERARCHY
ROOT Hips
{
	OFFSET 0.00000 0.00000 0.00000
	CHANNELS 6 Xposition Yposition Zposition Zrotation Yrotation Xrotation 
	JOINT LHipJoint
	{
		OFFSET 0 0 0
		CHANNELS 3 Zrotation Yrotation Xrotation
		JOINT LeftHip
		{
			OFFSET 1.58895 -1.83665 0.71753
			CHANNELS 3 Zrotation Yrotation Xrotation
			JOINT LeftKnee
			{
				OFFSET 2.50528 -6.88321 0.00000
				CHANNELS 3 Zrotation Yrotation Xrotation
				JOINT LeftAnkle
				{
					OFFSET 2.63244 -7.23257 0.00000
					CHANNELS 3 Zrotation Yrotation Xrotation
					JOINT LeftToe
					{
						OFFSET 0.23691 -0.65090 1.72750
						CHANNELS 3 Zrotation Yrotation Xrotation
						End Site
						{
							OFFSET 0.00000 -0.00000 0.92561
						}
					}
				}
			}
		}
	}
	JOINT RHipJoint
	{
		OFFSET 0 0 0
		CHANNELS 3 Zrotation Yrotation Xrotation
		JOINT RightHip
		{
			OFFSET -1.51435 -1.83665 0.71753
			CHANNELS 3 Zrotation Yrotation Xrotation
			JOINT RightKnee
			{
				OFFSET -2.54551 -6.99375 0.00000
				CHANNELS 3 Zrotation Yrotation Xrotation
				JOINT RightAnkle
				{
					OFFSET -2.66027 -7.30903 0.00000
					CHANNELS 3 Zrotation Yrotation Xrotation
					JOINT RightToe
					{
						OFFSET -0.22981 -0.63138 2.03959
						CHANNELS 3 Zrotation Yrotation Xrotation
						End Site
						{
							OFFSET -0.00000 -0.00000 1.07060
						}
					}
				}
			}
		}
	}
	JOINT lowerback
	{
		OFFSET 0 0 0
		CHANNELS 3 Zrotation Yrotation Xrotation
		JOINT Chest
		{
			OFFSET -0.02651 1.86275 -0.11152
			CHANNELS 3 Zrotation Yrotation Xrotation
			JOINT Chest2
			{
				OFFSET 0.01019 1.86224 0.04087
				CHANNELS 3 Zrotation Yrotation Xrotation
				JOINT lowerneck
				{
					OFFSET 0 0 0
					CHANNELS 3 Zrotation Yrotation Xrotation
					JOINT Neck
					{
						OFFSET -0.01926 1.80512 0.08867
						CHANNELS 3 Zrotation Yrotation Xrotation
						JOINT Head
						{
							OFFSET 0.05516 1.76451 -0.38475
							CHANNELS 3 Zrotation Yrotation Xrotation
							End Site
							{
								OFFSET 0.01592 1.82587 -0.14001
							}
						}
					}
				}
				JOINT LeftCollar
				{
					OFFSET 0 0 0
					CHANNELS 3 Zrotation Yrotation Xrotation
					JOINT LeftShoulder
					{
						OFFSET 3.47116 1.51376 0.14491
CHANNELS 3 Zrotation Xrotation Yrotation
						JOINT LeftElbow
						{
OFFSET 0 -4.780950 0.000000
CHANNELS 3 Zrotation Xrotation Yrotation
							JOINT LeftWrist
							{
OFFSET 0 -3.586150 -0.000000
CHANNELS 3 Zrotation Xrotation Yrotation
								JOINT lhand
								{
									OFFSET 0 0 0
CHANNELS 3 Zrotation Xrotation Yrotation
									JOINT LFingers
									{
OFFSET 0 -0.659810 0.000000
CHANNELS 3 Zrotation Xrotation Yrotation
										End Site
										{
OFFSET 0 -0.531960 0.000000
										}
									}
								}
								JOINT LThumb
								{
OFFSET 0 0.000000 0.000000
CHANNELS 3 Zrotation Xrotation Yrotation
									End Site
									{
OFFSET 0 -0.540080 0.540080
									}
								}
							}
						}
					}
				}
				JOINT RightCollar
				{
					OFFSET 0 0 0
					CHANNELS 3 Zrotation Yrotation Xrotation
					JOINT RightShoulder
					{
						OFFSET -3.31725 1.61216 0.35156
CHANNELS 3 Zrotation Xrotation Yrotation
						JOINT RightElbow
						{
OFFSET 0 -4.489130 0.000000
CHANNELS 3 Zrotation Xrotation Yrotation
							JOINT RightWrist
							{
OFFSET 0 -3.705100 0.000000
CHANNELS 3 Zrotation Xrotation Yrotation
								JOINT rhand
								{
									OFFSET 0 0 0
CHANNELS 3 Zrotation Xrotation Yrotation
									JOINT RFingers
									{
OFFSET 0 -0.449140 0.000000
CHANNELS 3 Zrotation Xrotation Yrotation
										End Site
										{
OFFSET 0 -0.362110 0.000000
										}
									}
								}
								JOINT RThumb
								{
OFFSET 0 0.000000 0.000000
CHANNELS 3 Zrotation Xrotation Yrotation
									End Site
									{
OFFSET 0 -0.367630 0.367630
									}
								}
							}
						}
					}
				}
			}
		}
	}
}
MOTION
Frames: 4
Frame Time: 0.008333333333333333
-1.060854 18.749941 4.625787 0.615148 -9.290238 1.416605 0.000000 0.000000 0.000000 -13.750260 -4.581302 -1.646837 0.814706 5.759784 16.089025 1.363910 12.390010 -29.634568 7.604417 -15.820423 -51.124930 0.000000 0.000000 0.000000 0.000000 0.000000 0.000000 0.000000 0.000000 0.000000 0.000000 0.000000 0.000000 0.000000 0.000000 0.000000 -3.032961 -2.484016 18.505750 -5.558659 -4.376077 2.459204 -3.192738 -2.114574 -7.932644 3.242674 2.936057 -23.359087 2.593626 2.169850 23.748154 0.786326 1.614399 11.660124 0.000000 0.000000 0.000000 36.160505 -29.902635 21.362580 114.884951 -57.502104 81.367552 38.543741 -109.166857 32.013823 0.000000 0.000000 0.000000 -7.125000 0.000000 0.000000 3.677351 -8.595370 4.197921 0.000000 0.000000 0.000000 -59.205035 -53.207707 64.719961 -150.345326 -40.595591 -108.815782 -11.239140 -42.035098 17.346236 0.000000 0.000000 0.000000 7.125000 0.000000 0.000000 15.866856 47.003066 -0.803990
-1.053935 18.750343 4.644364 0.573345 -9.093256 1.486663 0.000000 0.000000 0.000000 -13.737248 -4.727599 -1.703976 0.823699 5.790624 16.178256 1.372817 12.316254 -29.632527 7.619556 -15.832222 -51.180477 0.000000 0.000000 0.000000 0.000000 0.000000 0.000000 0.000000 0.000000 0.000000 0.000000 0.000000 0.000000 0.000000 0.000000 0.000000 -2.896029 -2.214306 18.194443 -5.328079 -3.962519 2.315340 -3.131421 -1.916067 -7.892845 3.137764 2.604652 -22.946764 2.391659 1.805126 24.331589 0.669554 1.418327 11.804667 0.000000 0.000000 0.000000 37.620920 -27.974756 18.226010 120.543657 -56.159886 86.110129 33.734862 -101.706761 31.715511 0.000000 0.000000 0.000000 -7.125000 0.000000 0.000000 1.116768 -6.634207 1.241087 0.000000 0.000000 0.000000 -61.131571 -50.424991 62.188301 -150.246701 -40.680987 -108.751550 -10.785778 -42.411056 17.544079 0.000000 0.000000 0.000000 7.125000 0.000000 0.000000 16.352571 47.135258 -0.884441
-1.045017 18.752030 4.665531 0.558435 -8.854141 1.614112 0.000000 0.000000 0.000000 -13.749781 -4.873059 -1.844197 0.832977 5.822368 16.269931 1.376798 12.204479 -29.565683 7.626448 -15.837537 -51.205857 0.000000 0.000000 0.000000 0.000000 0.000000 0.000000 0.000000 0.000000 0.000000 0.000000 0.000000 0.000000 0.000000 0.000000 0.000000 -2.752217 -1.933217 17.714559 -5.086311 -3.519013 2.224421 -3.070521 -1.704312 -7.701844 3.007465 2.280888 -22.590844 2.178323 1.460427 24.900653 0.556075 1.227602 11.954512 0.000000 0.000000 0.000000 39.423593 -25.927671 14.792581 125.377992 -54.679194 90.088220 28.803996 -94.850696 30.686502 0.000000 0.000000 0.000000 -7.125000 0.000000 0.000000 -1.433918 -4.128954 -1.524803 0.000000 0.000000 0.000000 -63.129690 -47.496661 59.501326 -150.056782 -40.844540 -108.627512 -10.366044 -42.809646 17.907144 0.000000 0.000000 0.000000 7.125000 0.000000 0.000000 16.871045 47.430150 -1.040284
-1.034587 18.754329 4.686926 0.588006 -8.608018 1.750975 0.000000 0.000000 0.000000 -13.806149 -4.946767 -2.039052 0.842506 5.854845 16.363785 1.363876 12.095633 -29.388643 7.644171 -15.851230 -51.270784 0.000000 0.000000 0.000000 0.000000 0.000000 0.000000 0.000000 0.000000 0.000000 0.000000 0.000000 0.000000 0.000000 0.000000 0.000000 -2.587731 -1.602229 17.312907 -4.899407 -3.020102 2.081438 -3.089048 -1.466155 -7.613302 2.884541 1.893705 -22.313573 2.020300 0.997633 25.654503 0.444733 0.995039 12.192782 0.000000 0.000000 0.000000 41.536245 -23.634494 10.648591 129.791539 -53.065308 93.655635 25.131394 -89.126185 29.930370 0.000000 0.000000 0.000000 -7.125000 0.000000 0.000000 -3.396226 -2.428146 -3.539533 0.000000 0.000000 0.000000 -64.848733 -44.304360 57.046741 -149.790913 -41.071723 -108.453219 -10.263424 -42.897854 18.505968 0.000000 0.000000 0.000000 7.125000 0.000000 0.000000 17.194323 47.993161 -1.306536
